<?xml version="1.0" encoding="utf-8" ?><svg xmlns="http://www.w3.org/2000/svg" xmlns:xlink="http://www.w3.org/1999/xlink" width="1058" height="887" viewBox="0 0 1058 887"><path fill="#11770F" d="M510.837 163.514C658.993 156.436 784.837 270.798 791.922 418.953C799.006 567.108 684.649 692.957 536.493 700.047C388.329 707.139 262.47 592.774 255.385 444.609C248.3 296.445 362.671 170.593 510.837 163.514ZM522.543 654.731C645.617 653.942 744.768 553.57 744.052 430.497C743.336 307.423 643.022 208.213 519.947 208.856C396.77 209.5 297.457 309.916 298.174 433.092C298.891 556.269 399.366 655.521 522.543 654.731Z"/><path fill="#40C34D" d="M620.768 338.617C633.32 338.728 633.601 343.738 633.481 355.516C632.654 436.765 617.721 538.468 531.006 571.318C512.369 578.378 485.72 577.134 467.484 569.556C461.358 567.01 458.915 560.193 461.541 554.022C477.667 518.371 500.953 485.562 524.185 454.242C533.865 441.191 545.19 431.135 552.784 416.72L546.233 420.11C509.393 440.365 479.011 470.598 458.576 507.338C454.193 515.179 449.953 523.099 445.861 531.094C443.222 536.209 440.51 542.047 437.393 546.803L436.92 547.517C402.363 508.065 397.929 450.985 435.021 411.249C468.669 375.203 512.792 358.077 560.097 347.673C580.913 343.095 599.404 339.561 620.768 338.617Z"/><path fill="#40C34D" d="M477.221 269.365C479.303 271.391 481.504 285.218 485.454 291.705C494.444 306.468 507.408 308.739 522.917 313.087C493.075 320.195 485.658 325.41 478.247 355.687L477.818 355.75C476.833 354.854 473.773 344.205 473.096 341.95C467.081 321.917 451.624 318.056 433.32 312.964C462.589 305.296 470.633 299.577 477.221 269.365Z"/><path fill="#40C34D" d="M418.253 329.498C419.699 331.577 420.706 340.594 424.267 346.265C431.324 357.503 441.222 359.415 453.305 362.548C432.082 366.389 422.799 373.235 418.729 394.885C416.238 392.572 414.548 381.047 410.538 375.894C403.738 367.155 393.137 364.275 382.751 362.606C407.256 357.287 411.042 352.538 418.253 329.498Z"/><path fill="#40C34D" d="M830.076 313.726C858.52 312.372 858.55 334.493 862.792 356.482C874.345 413.549 871.429 472.6 854.31 528.252C826.832 617.258 764.863 691.559 682.236 734.569L717.385 770.129C726.945 770.006 754.515 767.838 761.851 773.406C775.177 783.519 768.638 804.147 750.34 804.21C743.314 804.235 734.089 804.292 726.62 804.278L681.843 804.274L537.473 804.273L367.878 804.304L314.818 804.319C304.033 804.345 279.659 806.6 271.851 799.556C268.487 796.466 266.53 792.137 266.432 787.57C266.061 775.224 275.53 770.28 286.268 770.13C297.313 769.976 308.268 769.944 319.312 769.923L359.505 733.587C344.579 725.44 330.187 716.352 316.416 706.376C296.759 692.903 277.922 674.185 261.822 656.695C256.768 660.579 233.69 678.315 227.789 677.257C227.004 677.116 226.822 676.93 226.423 676.217C225.045 673.757 224.569 669.968 224.235 667.216C223.156 658.323 216.141 571.978 217.248 569.15C217.709 567.974 218.88 566.759 220.102 566.372C222.827 565.508 227.156 568.033 229.588 569.159C246.896 577.171 263.962 585.854 281.093 594.239C291.524 599.345 302.771 604.052 312.713 610.039C314.461 611.092 317.664 613.025 318.377 614.966C316.934 621.449 303.696 628.746 297.96 632.464C302.304 635.772 315.113 648.958 319.96 653.445C333.33 665.602 347.823 676.464 363.243 685.886C431.827 727.824 514.278 740.756 592.408 721.829C669.74 703.069 736.514 654.485 778.161 586.678C817.477 522.492 831.491 445.968 817.473 372.015C816.729 367.919 815.74 362.451 814.611 358.471C813.443 354.354 810.927 349.312 809.944 345.112C808.294 338.335 809.436 331.178 813.114 325.251C817.151 318.886 822.86 315.39 830.076 313.726ZM375.974 770.019L445.569 770.182C453.279 770.201 460.99 770.144 468.699 770.014C444.288 765.117 420.81 759.647 397.487 750.563L375.974 770.019ZM575.891 769.857C583.29 770.086 590.695 770.119 598.096 769.958C619.659 770.179 642.606 770.494 664.123 770.108C661.499 767.463 646.629 752.247 644.707 751.16C622.028 760.101 599.748 765.019 575.891 769.857Z"/><path fill="#40C34D" d="M507.678 78.2333C513.804 77.8882 521.164 77.8864 527.296 77.9946C605.655 79.0763 681.336 106.669 742.003 156.274C756.472 168.105 768.576 180.492 781.48 193.845C787.887 189.338 806.708 175.43 813.485 176.19C816.122 179.427 816.293 188.83 816.545 193.056L820.001 253.834C820.56 263.775 821.401 273.977 821.405 283.9C820.747 293.186 813.057 288.112 808.41 285.762C780.696 271.915 753.414 257.08 725.63 243.374C709.751 235.54 732.27 225.37 739.882 220.622C692.674 171.323 630.249 139.345 562.658 129.836C482.741 118.795 401.726 140.159 337.644 189.171C317.114 206.103 305.616 215.785 288.213 236.798C238.618 297.15 214.258 374.329 220.221 452.216C221.068 463.386 222.488 474.756 224.747 485.722C227.101 497.125 234.371 510.129 225.258 520.548C215.272 531.967 197.695 532.644 189.212 519.005C186.401 514.487 184.488 509.824 183.102 504.736C177.71 484.938 175.472 463.961 174.43 443.519C169.803 351.894 201.484 262.14 262.603 193.722C327.209 122.318 411.711 82.9372 507.678 78.2333Z"/></svg>