<?xml version="1.0" encoding="utf-8"?>
<svg xmlns="http://www.w3.org/2000/svg" viewBox="0 0 500 500" xmlns:bx="https://boxy-svg.com" width="500px" height="500px"><defs><bx:export><bx:file format="svg"/></bx:export></defs><path d="M 205.129 1.431 C 192.686 3.474 175.229 7.56 172.63 9.045 C 171.701 9.788 167.801 10.903 164.272 11.645 C 160.744 12.388 155.73 14.06 153.13 15.36 C 150.53 16.66 143.101 20.56 136.416 23.717 C 100.202 41.731 65.66 72.373 44.117 105.43 C 40.403 111.001 35.946 117.687 34.274 120.287 C 32.603 122.887 29.632 128.829 27.589 133.658 C 25.732 138.672 23.503 142.572 22.76 142.572 C 21.832 142.572 21.275 143.872 21.275 145.543 C 21.275 147.215 20.16 150.743 18.675 153.343 C 15.146 160.029 8.646 182.314 6.418 195.871 C 5.489 201.814 3.818 211.657 2.703 217.785 C 0.661 228.742 1.032 263.47 3.261 276.284 C 4.746 283.713 14.218 292.998 20.717 292.998 C 22.946 292.998 27.774 290.584 31.117 287.427 L 37.431 281.856 L 38.546 248.985 C 39.474 223.728 40.589 212.4 43.56 201.071 C 45.788 192.9 48.017 183.614 48.574 180.272 C 49.131 176.929 50.617 173.214 52.103 172.1 C 53.588 170.986 54.703 168.2 54.703 165.972 C 54.703 163.929 56.374 159.472 58.417 156.5 C 60.46 153.343 63.988 147.215 66.217 142.572 C 79.774 113.972 116.73 76.83 147.744 60.859 C 163.158 53.059 185.815 43.959 187.115 45.259 C 187.486 45.631 191.201 44.888 195.286 43.402 C 212 37.459 255.271 38.016 284.985 44.331 C 323.799 52.502 367.07 80.544 392.326 113.787 C 396.969 119.915 401.612 125.487 402.541 126.044 C 403.655 126.787 401.798 128.644 398.826 130.315 C 388.798 135.329 388.055 144.058 396.969 150.372 C 404.212 155.572 409.226 158.729 414.055 161.143 C 416.097 162.258 421.483 165.6 426.126 168.572 C 440.426 178.043 450.268 181.943 453.425 179.343 C 458.254 175.443 461.225 165.043 461.597 150.558 C 461.783 142.572 462.711 130.687 463.64 124.001 C 465.682 109.33 464.568 104.13 458.625 101.344 C 455.097 99.673 452.683 100.044 446.183 103.201 L 438.383 107.287 L 432.812 100.23 C 421.297 86.301 383.969 50.273 373.198 43.031 C 353.327 29.474 325.842 16.102 309.128 11.645 C 306.528 11.088 302.813 9.788 300.771 9.045 C 283.685 1.988 229.272 -2.283 205.129 1.431 Z" fill="#008000" style="stroke-width: 1px;"/><path d="M 207.915 77.944 C 171.887 86.859 150.344 98.93 125.087 124.372 C 87.388 162.443 68.817 214.814 74.945 265.513 C 78.288 292.256 83.674 308.413 98.159 334.784 C 103.916 345.369 116.73 361.897 125.644 370.255 C 161.115 404.054 205.315 421.511 247.843 418.54 C 270.314 417.054 293.156 411.482 302.628 404.983 C 304.67 403.683 307.27 402.568 308.756 402.568 C 317.856 402.568 370.412 356.883 370.412 348.898 C 370.412 347.969 370.97 346.855 371.898 346.483 C 375.241 344.998 386.941 323.455 393.441 306.927 C 410.155 263.842 405.14 201.443 381.927 163 C 379.698 159.472 376.355 153.529 374.312 150.001 C 369.67 141.644 339.213 109.144 336.056 109.144 C 334.199 107.287 335.127 108.215 332.342 106.358 C 327.513 98.744 291.856 82.959 274.028 80.359 C 269.571 79.802 264 78.502 261.4 77.387 C 255.643 75.159 217.572 75.53 207.915 77.944 Z M 265.485 112.672 C 292.785 118.987 315.07 131.615 332.342 150.372 C 344.413 163.557 354.813 178.972 357.784 187.7 C 358.898 191.043 360.384 194.386 361.127 195.5 C 363.541 198.843 370.227 226.699 371.527 238.214 C 373.755 259.385 367.07 289.099 354.07 315.098 C 344.97 333.669 319.156 359.855 301.699 368.583 C 283.128 377.869 276.257 380.097 260.1 382.883 C 232.057 387.711 204.758 383.254 178.572 369.512 C 168.915 364.497 160.373 357.812 148.116 345.369 C 138.644 335.898 130.844 326.984 130.844 325.684 C 130.844 324.198 130.102 322.712 129.173 322.341 C 126.387 321.412 113.016 291.141 110.23 279.999 C 105.773 261.799 107.259 219.642 112.645 206.085 C 113.759 203.3 115.245 199.4 115.802 197.357 C 123.23 176.186 139.573 153.158 157.215 139.044 C 170.03 128.829 196.586 114.715 203.643 114.53 C 205.872 114.53 211.629 113.415 216.272 112.115 C 228.529 108.587 248.586 108.773 265.485 112.672 Z" fill="#476639" style="stroke-width: 1px;"/><path fill-rule="evenodd" clip-rule="evenodd" d="M 182.844 301.355 C 183.507 300.03 183.696 299.651 183.885 299.272 L 182.844 301.355 Z" fill="#008000" style="stroke-width: 1px;"/><path d="M 266.414 174.143 C 268.271 173.214 276.814 171.543 285.356 170.8 C 298.542 169.315 302.628 169.315 309.128 170.243 C 311.356 170.615 308.199 222.428 305.413 232.642 C 304.485 235.614 303.37 241.928 302.628 246.571 C 299.285 270.899 281.271 300.984 261.585 315.284 C 245.057 327.541 220.172 331.998 202.529 326.055 C 191.386 322.341 190.458 319.184 196.772 306.555 C 208.658 283.341 232.614 248.613 249.7 230.042 C 252.857 226.699 255.085 223.542 254.9 223.171 C 253.6 221.871 226.3 241.556 217.572 249.913 C 207.358 259.756 196.772 274.613 190.086 288.356 C 187.672 293.37 184.886 298.198 184.144 298.756 C 184.038 298.967 183.962 299.12 183.885 299.272 C 183.696 299.651 183.507 300.03 182.844 301.355 C 182.227 302.59 181.774 303.928 181.354 305.163 C 180.515 307.644 179.813 309.713 178.201 309.713 C 173.929 309.713 163.344 290.213 161.858 287.427 C 161.381 286.738 161.327 286.664 161.327 286.664 C 161.327 286.664 161.426 286.794 160.744 285.756 C 157.773 281.856 157.401 251.585 162.23 240.256 C 171.144 220.014 186.372 204.971 211.072 192.157 C 224.257 185.286 251.743 176 258.8 176 C 261.028 176 264.557 175.257 266.414 174.143 Z" fill="#008000" style="stroke-width: 1px;"/><path d="M 450.083 214.814 C 446.368 217.785 445.626 220.571 444.326 238.399 C 442.097 270.899 439.683 287.427 434.669 303.213 C 421.855 344.626 407.183 369.697 378.955 397.926 C 363.355 413.34 338.47 432.282 333.456 432.282 C 332.342 432.282 331.413 433.025 331.413 433.954 C 331.413 435.439 304.485 446.396 290.556 450.668 C 274.585 455.496 231.686 460.139 228.714 457.168 C 228.157 456.61 224.072 455.868 219.615 455.496 C 200.301 454.196 190.272 451.41 162.973 440.268 C 156.473 437.668 151.273 434.696 151.273 433.768 C 151.273 433.025 150.158 432.282 149.044 432.282 C 146.073 432.282 124.902 417.797 122.859 414.454 C 122.116 412.968 120.259 411.854 118.959 411.854 C 115.802 411.854 94.259 388.454 86.831 377.126 C 84.417 373.412 84.417 372.854 86.645 372.854 C 90.916 372.854 95.931 366.169 95.188 361.34 C 94.816 358.183 88.688 352.983 72.345 341.841 C 60.088 333.484 49.131 325.869 47.831 324.755 C 43.746 321.041 35.017 322.341 32.789 326.798 C 29.632 332.926 27.403 348.155 27.032 365.612 C 26.846 374.154 26.103 381.769 25.546 382.697 C 23.317 386.226 27.217 396.811 31.674 399.783 C 36.131 402.754 36.689 402.568 43.003 397.74 L 49.688 392.726 L 64.36 408.697 C 72.531 417.425 84.788 429.682 91.845 435.625 L 104.473 446.768 L 88.688 461.81 L 72.717 476.853 L 58.974 476.853 C 41.889 476.853 37.989 478.71 37.989 486.881 C 37.989 500.067 23.132 499.138 238.186 499.138 C 429.283 499.138 431.697 499.138 435.411 495.424 C 437.454 493.381 439.126 489.296 439.126 485.953 C 439.126 481.31 438.011 480.01 432.626 477.596 C 429.097 476.296 421.855 474.996 416.655 474.996 C 408.112 474.996 405.698 474.067 396.969 467.382 C 391.584 463.11 387.126 459.025 387.126 458.282 C 387.126 457.353 384.155 455.125 380.627 452.896 C 373.941 448.996 372.084 445.282 376.727 445.282 C 381.555 445.282 425.012 400.34 435.226 384.926 C 454.911 355.212 469.954 318.627 475.339 287.427 C 479.054 265.699 479.054 230.414 475.154 222.799 C 469.582 211.471 458.44 207.943 450.083 214.814 Z M 141.059 468.496 C 146.258 470.91 151.273 473.139 152.573 473.139 C 153.687 473.139 155.173 473.882 155.73 474.81 C 156.287 475.739 147.744 476.296 136.416 476.11 C 125.273 476.11 115.987 475.739 115.987 475.367 C 115.987 474.067 128.244 464.039 129.916 463.853 C 131.03 463.853 136.044 465.896 141.059 468.496 Z M 353.327 468.496 C 356.484 471.096 359.827 473.139 360.941 473.139 C 362.055 473.139 362.984 474.067 362.984 475.182 C 362.984 476.296 361.684 476.667 360.013 476.11 C 358.341 475.553 350.356 474.996 341.999 474.81 C 329.927 474.81 327.699 474.439 331.413 472.953 C 333.827 471.839 336.427 470.353 336.984 469.61 C 338.099 467.939 344.784 464.039 346.641 463.853 C 347.198 463.853 350.356 465.896 353.327 468.496 Z" fill="#008000" style="stroke-width: 1px;"/></svg>