<svg xmlns="http://www.w3.org/2000/svg" xmlns:xlink="http://www.w3.org/1999/xlink" width="633" zoomAndPan="magnify" viewBox="0 0 474.75 123.000003" height="164" preserveAspectRatio="xMidYMid meet" version="1.0"><defs><g/><clipPath id="b85848cd7b"><path d="M 18 16 L 42 16 L 42 38 L 18 38 Z M 18 16 " clip-rule="nonzero"/></clipPath><clipPath id="b401b802dd"><path d="M 25.027344 50.460938 L 11.199219 19.972656 L 36.941406 8.292969 L 50.773438 38.78125 Z M 25.027344 50.460938 " clip-rule="nonzero"/></clipPath><clipPath id="9a540a5cb5"><path d="M 25.027344 50.460938 L 11.199219 19.972656 L 36.941406 8.292969 L 50.773438 38.78125 Z M 25.027344 50.460938 " clip-rule="nonzero"/></clipPath><clipPath id="67960c0c67"><path d="M 27 25 L 46 25 L 46 41 L 27 41 Z M 27 25 " clip-rule="nonzero"/></clipPath><clipPath id="2886a4fe6b"><path d="M 25.027344 50.460938 L 11.199219 19.972656 L 36.941406 8.292969 L 50.773438 38.78125 Z M 25.027344 50.460938 " clip-rule="nonzero"/></clipPath><clipPath id="13a96dba89"><path d="M 25.027344 50.460938 L 11.199219 19.972656 L 36.941406 8.292969 L 50.773438 38.78125 Z M 25.027344 50.460938 " clip-rule="nonzero"/></clipPath><clipPath id="3c1e5c275e"><path d="M 0.597656 18 L 55 18 L 55 67 L 0.597656 67 Z M 0.597656 18 " clip-rule="nonzero"/></clipPath><clipPath id="469f55623d"><rect x="0" width="434" y="0" height="84"/></clipPath></defs><g clip-path="url(#b85848cd7b)"><g clip-path="url(#b401b802dd)"><g clip-path="url(#9a540a5cb5)"><path fill="#bcf2f7" d="M 18.339844 16.941406 C 27.695312 19.234375 42.367188 19.519531 41.140625 37.617188 C 20.640625 40.785156 23.640625 22.941406 18.339844 16.941406 Z M 18.339844 16.941406 " fill-opacity="1" fill-rule="evenodd"/></g></g></g><g clip-path="url(#67960c0c67)"><g clip-path="url(#2886a4fe6b)"><g clip-path="url(#13a96dba89)"><path fill="#bcf2f7" d="M 27.019531 25.191406 C 31.527344 31.765625 37.136719 36.414062 43.949219 40.449219 C 45.308594 41.253906 45.457031 38.664062 44.789062 38.371094 C 37.304688 35.070312 31.96875 30.554688 27.019531 25.191406 Z M 27.019531 25.191406 " fill-opacity="1" fill-rule="evenodd"/></g></g></g><g transform="matrix(1, 0, 0, 1, 20, 18)"><g clip-path="url(#469f55623d)"><g clip-path="url(#3c1e5c275e)"><g fill="#b0ecee" fill-opacity="1"><g transform="translate(1.589956, 66.228818)"><g><path d="M 37.15625 -10.25 L 14.953125 -10.25 L 10.71875 0 L -0.609375 0 L 20.703125 -47.8125 L 31.625 -47.8125 L 53.015625 0 L 41.390625 0 Z M 33.671875 -18.65625 L 26.09375 -36.953125 L 18.515625 -18.65625 Z M 33.671875 -18.65625 "/></g></g></g></g><g fill="#b0ecee" fill-opacity="1"><g transform="translate(53.564678, 66.228818)"><g><path d="M 22.6875 0.546875 C 18.769531 0.546875 15.25 -0.257812 12.125 -1.875 C 9.007812 -3.488281 6.570312 -5.726562 4.8125 -8.59375 C 3.0625 -11.46875 2.1875 -14.726562 2.1875 -18.375 C 2.1875 -22.019531 3.0625 -25.273438 4.8125 -28.140625 C 6.570312 -31.015625 9.007812 -33.257812 12.125 -34.875 C 15.25 -36.488281 18.769531 -37.296875 22.6875 -37.296875 C 26.550781 -37.296875 29.925781 -36.488281 32.8125 -34.875 C 35.707031 -33.257812 37.816406 -30.945312 39.140625 -27.9375 L 30.875 -23.5 C 28.96875 -26.863281 26.210938 -28.546875 22.609375 -28.546875 C 19.828125 -28.546875 17.523438 -27.632812 15.703125 -25.8125 C 13.890625 -24 12.984375 -21.519531 12.984375 -18.375 C 12.984375 -15.226562 13.890625 -12.742188 15.703125 -10.921875 C 17.523438 -9.109375 19.828125 -8.203125 22.609375 -8.203125 C 26.253906 -8.203125 29.007812 -9.882812 30.875 -13.25 L 39.140625 -8.75 C 37.816406 -5.832031 35.707031 -3.550781 32.8125 -1.90625 C 29.925781 -0.269531 26.550781 0.546875 22.6875 0.546875 Z M 22.6875 0.546875 "/></g></g></g><g fill="#b0ecee" fill-opacity="1"><g transform="translate(93.450632, 66.228818)"><g><path d="M 22.6875 0.546875 C 18.769531 0.546875 15.25 -0.257812 12.125 -1.875 C 9.007812 -3.488281 6.570312 -5.726562 4.8125 -8.59375 C 3.0625 -11.46875 2.1875 -14.726562 2.1875 -18.375 C 2.1875 -22.019531 3.0625 -25.273438 4.8125 -28.140625 C 6.570312 -31.015625 9.007812 -33.257812 12.125 -34.875 C 15.25 -36.488281 18.769531 -37.296875 22.6875 -37.296875 C 26.550781 -37.296875 29.925781 -36.488281 32.8125 -34.875 C 35.707031 -33.257812 37.816406 -30.945312 39.140625 -27.9375 L 30.875 -23.5 C 28.96875 -26.863281 26.210938 -28.546875 22.609375 -28.546875 C 19.828125 -28.546875 17.523438 -27.632812 15.703125 -25.8125 C 13.890625 -24 12.984375 -21.519531 12.984375 -18.375 C 12.984375 -15.226562 13.890625 -12.742188 15.703125 -10.921875 C 17.523438 -9.109375 19.828125 -8.203125 22.609375 -8.203125 C 26.253906 -8.203125 29.007812 -9.882812 30.875 -13.25 L 39.140625 -8.75 C 37.816406 -5.832031 35.707031 -3.550781 32.8125 -1.90625 C 29.925781 -0.269531 26.550781 0.546875 22.6875 0.546875 Z M 22.6875 0.546875 "/></g></g></g><g fill="#b0ecee" fill-opacity="1"><g transform="translate(133.336586, 66.228818)"><g><path d="M 40.921875 -18.234375 C 40.921875 -18.097656 40.851562 -17.144531 40.71875 -15.375 L 12.90625 -15.375 C 13.40625 -13.09375 14.585938 -11.289062 16.453125 -9.96875 C 18.328125 -8.65625 20.65625 -8 23.4375 -8 C 25.34375 -8 27.035156 -8.28125 28.515625 -8.84375 C 29.992188 -9.414062 31.375 -10.316406 32.65625 -11.546875 L 38.328125 -5.390625 C 34.859375 -1.429688 29.800781 0.546875 23.15625 0.546875 C 19.007812 0.546875 15.34375 -0.257812 12.15625 -1.875 C 8.96875 -3.488281 6.507812 -5.726562 4.78125 -8.59375 C 3.050781 -11.46875 2.1875 -14.726562 2.1875 -18.375 C 2.1875 -21.96875 3.039062 -25.210938 4.75 -28.109375 C 6.457031 -31.003906 8.800781 -33.257812 11.78125 -34.875 C 14.769531 -36.488281 18.109375 -37.296875 21.796875 -37.296875 C 25.390625 -37.296875 28.644531 -36.519531 31.5625 -34.96875 C 34.476562 -33.425781 36.765625 -31.207031 38.421875 -28.3125 C 40.085938 -25.425781 40.921875 -22.066406 40.921875 -18.234375 Z M 21.859375 -29.234375 C 19.441406 -29.234375 17.414062 -28.550781 15.78125 -27.1875 C 14.144531 -25.820312 13.144531 -23.957031 12.78125 -21.59375 L 30.875 -21.59375 C 30.507812 -23.914062 29.503906 -25.769531 27.859375 -27.15625 C 26.222656 -28.539062 24.222656 -29.234375 21.859375 -29.234375 Z M 21.859375 -29.234375 "/></g></g></g><g fill="#b0ecee" fill-opacity="1"><g transform="translate(176.432609, 66.228818)"><g><path d="M 4.921875 -50.6875 L 15.578125 -50.6875 L 15.578125 0 L 4.921875 0 Z M 4.921875 -50.6875 "/></g></g></g><g fill="#b0ecee" fill-opacity="1"><g transform="translate(196.990305, 66.228818)"><g><path d="M 3.546875 -23.5 L 22.890625 -23.5 L 22.890625 -14.953125 L 3.546875 -14.953125 Z M 3.546875 -23.5 "/></g></g></g><g fill="#b0ecee" fill-opacity="1"><g transform="translate(223.626557, 66.228818)"><g><path d="M 28.828125 0.8125 C 23.859375 0.8125 19.378906 -0.253906 15.390625 -2.390625 C 11.410156 -4.535156 8.296875 -7.484375 6.046875 -11.234375 C 3.796875 -14.992188 2.671875 -19.21875 2.671875 -23.90625 C 2.671875 -28.601562 3.796875 -32.828125 6.046875 -36.578125 C 8.296875 -40.335938 11.410156 -43.285156 15.390625 -45.421875 C 19.378906 -47.566406 23.859375 -48.640625 28.828125 -48.640625 C 33.796875 -48.640625 38.257812 -47.566406 42.21875 -45.421875 C 46.175781 -43.285156 49.289062 -40.335938 51.5625 -36.578125 C 53.84375 -32.828125 54.984375 -28.601562 54.984375 -23.90625 C 54.984375 -19.21875 53.84375 -14.992188 51.5625 -11.234375 C 49.289062 -7.484375 46.175781 -4.535156 42.21875 -2.390625 C 38.257812 -0.253906 33.796875 0.8125 28.828125 0.8125 Z M 28.828125 -8.609375 C 31.648438 -8.609375 34.195312 -9.253906 36.46875 -10.546875 C 38.75 -11.847656 40.535156 -13.660156 41.828125 -15.984375 C 43.128906 -18.304688 43.78125 -20.945312 43.78125 -23.90625 C 43.78125 -26.863281 43.128906 -29.503906 41.828125 -31.828125 C 40.535156 -34.148438 38.75 -35.960938 36.46875 -37.265625 C 34.195312 -38.566406 31.648438 -39.21875 28.828125 -39.21875 C 26.003906 -39.21875 23.453125 -38.566406 21.171875 -37.265625 C 18.898438 -35.960938 17.113281 -34.148438 15.8125 -31.828125 C 14.519531 -29.503906 13.875 -26.863281 13.875 -23.90625 C 13.875 -20.945312 14.519531 -18.304688 15.8125 -15.984375 C 17.113281 -13.660156 18.898438 -11.847656 21.171875 -10.546875 C 23.453125 -9.253906 26.003906 -8.609375 28.828125 -8.609375 Z M 28.828125 -8.609375 "/></g></g></g><g fill="#b0ecee" fill-opacity="1"><g transform="translate(281.54329, 66.228818)"><g><path d="M 3.546875 -23.5 L 22.890625 -23.5 L 22.890625 -14.953125 L 3.546875 -14.953125 Z M 3.546875 -23.5 "/></g></g></g><g fill="#b0ecee" fill-opacity="1"><g transform="translate(307.906294, 66.228818)"><g><path d="M 36.140625 0 L 26.921875 -13.328125 L 16.734375 -13.328125 L 16.734375 0 L 5.671875 0 L 5.671875 -47.8125 L 26.375 -47.8125 C 30.601562 -47.8125 34.273438 -47.101562 37.390625 -45.6875 C 40.515625 -44.28125 42.921875 -42.28125 44.609375 -39.6875 C 46.296875 -37.09375 47.140625 -34.019531 47.140625 -30.46875 C 47.140625 -26.914062 46.285156 -23.851562 44.578125 -21.28125 C 42.867188 -18.707031 40.441406 -16.738281 37.296875 -15.375 L 48.03125 0 Z M 35.9375 -30.46875 C 35.9375 -33.15625 35.066406 -35.210938 33.328125 -36.640625 C 31.597656 -38.078125 29.070312 -38.796875 25.75 -38.796875 L 16.734375 -38.796875 L 16.734375 -22.140625 L 25.75 -22.140625 C 29.070312 -22.140625 31.597656 -22.863281 33.328125 -24.3125 C 35.066406 -25.769531 35.9375 -27.820312 35.9375 -30.46875 Z M 35.9375 -30.46875 "/></g></g></g><g fill="#b0ecee" fill-opacity="1"><g transform="translate(358.105319, 66.228818)"><g><path d="M 22.40625 0.546875 C 18.53125 0.546875 15.054688 -0.257812 11.984375 -1.875 C 8.910156 -3.488281 6.507812 -5.726562 4.78125 -8.59375 C 3.050781 -11.46875 2.1875 -14.726562 2.1875 -18.375 C 2.1875 -22.019531 3.050781 -25.273438 4.78125 -28.140625 C 6.507812 -31.015625 8.910156 -33.257812 11.984375 -34.875 C 15.054688 -36.488281 18.53125 -37.296875 22.40625 -37.296875 C 26.28125 -37.296875 29.738281 -36.488281 32.78125 -34.875 C 35.832031 -33.257812 38.222656 -31.015625 39.953125 -28.140625 C 41.691406 -25.273438 42.5625 -22.019531 42.5625 -18.375 C 42.5625 -14.726562 41.691406 -11.46875 39.953125 -8.59375 C 38.222656 -5.726562 35.832031 -3.488281 32.78125 -1.875 C 29.738281 -0.257812 26.28125 0.546875 22.40625 0.546875 Z M 22.40625 -8.203125 C 25.132812 -8.203125 27.375 -9.125 29.125 -10.96875 C 30.882812 -12.8125 31.765625 -15.28125 31.765625 -18.375 C 31.765625 -21.46875 30.882812 -23.9375 29.125 -25.78125 C 27.375 -27.625 25.132812 -28.546875 22.40625 -28.546875 C 19.675781 -28.546875 17.421875 -27.625 15.640625 -25.78125 C 13.867188 -23.9375 12.984375 -21.46875 12.984375 -18.375 C 12.984375 -15.28125 13.867188 -12.8125 15.640625 -10.96875 C 17.421875 -9.125 19.675781 -8.203125 22.40625 -8.203125 Z M 22.40625 -8.203125 "/></g></g></g><g fill="#b0ecee" fill-opacity="1"><g transform="translate(402.840505, 66.228818)"><g><path d="M 28.625 -1.78125 C 27.570312 -1 26.28125 -0.414062 24.75 -0.03125 C 23.226562 0.351562 21.628906 0.546875 19.953125 0.546875 C 15.578125 0.546875 12.191406 -0.566406 9.796875 -2.796875 C 7.410156 -5.023438 6.21875 -8.304688 6.21875 -12.640625 L 6.21875 -27.734375 L 0.546875 -27.734375 L 0.546875 -35.9375 L 6.21875 -35.9375 L 6.21875 -44.875 L 16.875 -44.875 L 16.875 -35.9375 L 26.03125 -35.9375 L 26.03125 -27.734375 L 16.875 -27.734375 L 16.875 -12.78125 C 16.875 -11.226562 17.269531 -10.03125 18.0625 -9.1875 C 18.863281 -8.34375 19.992188 -7.921875 21.453125 -7.921875 C 23.140625 -7.921875 24.570312 -8.378906 25.75 -9.296875 Z M 28.625 -1.78125 "/></g></g></g></g></g></svg>