<svg xmlns="http://www.w3.org/2000/svg" width="1024" height="1024" viewBox="0 0 1024 1024">
<g>
<path d="M 770.83 834.09 C769.05,835.04 713.03,835.41 519.52,835.73 C280.02,836.13 270.37,836.08 267.02,834.32 C258.90,830.07 256.82,820.93 262.61,814.89 L 265.37 812.00 L 295.52 812.00 L 314.96 792.54 C325.66,781.83 334.20,772.89 333.95,772.68 C333.70,772.46 327.65,767.62 320.50,761.93 C275.06,725.76 239.77,674.81 223.19,621.47 C215.80,597.67 215.52,593.64 220.85,588.04 L 224.69 584.00 L 233.70 584.00 C246.10,584.00 248.61,585.67 251.82,596.01 C267.91,647.82 291.87,687.09 327.51,720.04 C404.68,791.42 519.38,813.89 615.50,776.48 C695.57,745.31 754.27,683.10 776.92,605.42 C782.14,587.53 786.94,561.17 786.98,550.25 C787.01,542.57 784.81,543.16 774.88,553.50 C765.63,563.14 761.76,565.07 755.68,563.06 C753.71,562.41 750.73,560.31 749.05,558.40 C746.55,555.56 746.01,554.07 746.04,550.22 C746.05,547.62 746.62,544.55 747.29,543.38 C749.44,539.62 796.08,491.56 799.33,489.75 C803.06,487.67 807.54,487.51 811.03,489.33 C813.67,490.71 821.17,498.33 847.26,526.14 C864.22,544.22 865.42,546.33 863.11,554.04 C861.77,558.51 858.30,561.57 852.95,563.01 C847.40,564.51 844.71,562.97 834.94,552.66 C829.16,546.58 825.88,543.83 824.86,544.23 C823.65,544.69 823.08,548.16 822.13,560.65 C820.93,576.43 816.77,600.17 812.87,613.50 C801.75,651.48 782.36,688.33 757.79,718.16 C746.68,731.65 723.06,754.57 710.75,763.82 C705.39,767.85 701.01,771.45 701.02,771.82 C701.05,772.93 713.57,785.89 727.65,799.39 L 740.80 812.00 L 755.47 812.00 C763.61,812.00 770.99,812.46 772.06,813.03 C774.68,814.43 777.00,819.21 777.00,823.20 C776.99,827.12 774.01,832.39 770.83,834.09 ZM 512.56 620.52 C503.99,621.91 493.23,622.25 488.25,621.29 C486.92,621.04 486.00,620.13 486.00,619.07 C486.00,614.13 510.90,543.37 519.81,523.00 C520.90,520.53 526.17,508.15 531.53,495.50 C536.90,482.85 544.88,464.40 549.27,454.50 C565.20,418.61 568.81,410.00 567.92,410.00 C567.42,410.00 566.56,410.79 566.01,411.75 C565.46,412.71 555.83,428.81 544.63,447.53 C517.26,493.23 508.64,508.53 497.09,531.92 C486.41,553.55 477.52,573.90 469.38,595.35 C466.49,602.97 463.86,609.47 463.54,609.79 C462.60,610.73 453.26,601.17 447.21,593.08 C425.68,564.27 420.24,524.18 433.29,490.42 C440.62,471.46 453.74,453.09 475.43,431.47 C500.24,406.73 528.16,386.95 562.71,369.64 C580.63,360.66 595.00,355.16 595.00,357.28 C595.00,357.44 596.59,362.24 598.54,367.96 C603.69,383.12 606.81,394.67 610.09,410.79 C615.22,436.00 616.29,448.49 615.72,477.00 C615.27,499.42 614.90,503.95 612.63,514.50 C604.03,554.54 586.04,583.47 558.10,602.19 C542.09,612.91 530.36,617.64 512.56,620.52 ZM 294.93 454.54 C291.44,456.34 290.24,456.32 286.76,454.43 C283.80,452.83 281.00,448.30 281.00,445.11 C281.00,441.78 287.50,423.03 292.68,411.43 C317.38,356.10 363.78,311.80 422.41,287.61 C452.34,275.25 480.85,269.88 516.32,269.90 C542.81,269.92 558.24,271.73 581.00,277.48 C606.17,283.84 636.20,297.08 656.37,310.70 C690.24,333.58 718.10,365.83 736.53,403.50 C744.52,419.83 752.00,440.51 752.00,446.26 C752.00,451.01 748.65,454.88 743.89,455.64 C738.18,456.55 734.97,452.77 731.02,440.50 C709.88,374.84 655.37,320.58 589.50,299.63 C564.66,291.73 543.96,288.58 517.50,288.68 C478.56,288.82 446.81,296.08 414.05,312.33 C384.26,327.10 359.95,346.56 340.11,371.50 C322.08,394.17 311.76,412.79 302.98,438.50 C297.91,453.32 298.13,452.88 294.93,454.54 ZM 559.00 760.10 C542.82,762.88 502.98,763.64 487.50,761.47 C456.17,757.07 430.55,749.32 404.56,736.37 C354.21,711.29 312.20,666.91 291.51,616.95 C282.31,594.75 281.05,587.68 285.63,584.07 C288.55,581.78 292.62,581.41 296.35,583.11 C298.79,584.22 299.77,586.05 304.08,597.50 C308.07,608.11 317.48,627.23 323.45,636.86 C348.36,677.02 387.33,709.77 430.62,726.90 C460.14,738.59 488.32,744.00 519.64,744.00 C554.64,744.00 585.85,736.84 617.79,721.48 C642.17,709.76 661.66,695.46 681.75,674.55 C704.87,650.50 721.92,622.14 731.06,592.55 C733.36,585.11 736.49,582.00 741.71,582.00 C745.83,582.00 751.01,586.56 750.99,590.17 C750.93,600.73 735.42,635.30 721.17,656.62 C711.86,670.55 702.47,681.49 687.40,696.00 C652.57,729.51 608.27,751.63 559.00,760.10 ZM 631.49 810.98 C632.66,812.88 695.00,812.00 695.00,810.07 C695.00,808.53 675.65,789.00 674.13,789.00 C673.19,789.00 668.38,791.32 663.46,794.16 C655.13,798.95 647.58,802.68 635.68,807.85 C633.00,809.02 631.13,810.41 631.49,810.98 ZM 339.58 811.13 C339.89,811.64 353.55,811.91 371.07,811.76 C399.75,811.52 405.31,810.99 400.88,808.93 C400.12,808.57 390.55,803.83 379.62,798.39 L 359.73 788.50 L 349.38 799.37 C343.68,805.34 339.28,810.64 339.58,811.13 Z" fill="rgb(101,71,30)"/>
<path d="M 233.20 551.37 C230.09,554.12 223.19,554.55 219.50,552.22 C215.84,549.92 170.30,502.00 166.63,496.59 C163.49,491.97 163.29,487.68 165.99,483.24 C169.10,478.15 173.60,475.81 179.34,476.31 C183.90,476.70 184.71,477.24 193.00,485.50 C198.69,491.17 202.35,494.08 203.30,493.72 C204.42,493.29 204.94,490.41 205.47,481.83 C209.25,420.29 234.22,358.85 274.89,311.00 C288.72,294.74 314.90,270.83 333.29,257.68 C372.09,229.92 419.21,210.91 467.50,203.51 C502.80,198.11 548.79,199.15 580.50,206.08 C595.60,209.38 607.85,212.69 619.00,216.50 C709.99,247.56 781.62,318.15 811.38,406.09 C821.01,434.54 821.97,442.96 816.18,448.13 C810.17,453.50 794.11,454.39 787.30,449.72 C783.58,447.18 782.49,444.83 777.46,428.50 C763.56,383.45 734.30,337.71 700.50,308.20 C684.82,294.51 681.19,291.82 658.53,277.15 C650.42,271.90 626.42,260.46 613.05,255.47 C598.94,250.20 575.16,243.88 560.65,241.55 C555.27,240.68 542.73,239.46 532.78,238.82 C449.23,233.50 368.22,265.43 314.05,325.05 C287.60,354.15 268.33,386.73 257.10,421.34 C250.45,441.84 248.39,450.90 245.48,472.44 C243.57,486.58 243.54,493.00 245.40,493.00 C246.16,493.00 250.10,489.58 254.15,485.40 C258.19,481.23 262.72,477.18 264.20,476.40 C267.76,474.55 274.36,474.62 278.09,476.55 C284.54,479.88 287.12,490.07 283.14,496.50 C281.34,499.39 237.50,547.57 233.20,551.37 ZM 565.41 417.56 C566.43,414.51 566.22,413.33 564.64,415.04 C563.24,416.55 540.38,454.47 525.33,480.03 C530.57,471.07 536.84,460.53 544.63,447.53 C555.83,428.81 565.46,412.71 566.01,411.75 C566.56,410.79 567.42,410.00 567.92,410.00 C568.34,410.00 567.77,411.88 565.41,417.56 ZM 469.38 595.35 C476.85,575.65 484.96,556.88 494.51,537.20 C485.21,556.49 476.48,576.62 469.38,595.35 ZM 545.82 462.35 C550.72,451.12 555.85,439.48 560.47,429.11 C557.70,435.46 554.04,443.76 549.27,454.50 C548.28,456.74 547.11,459.41 545.82,462.35 ZM 531.53 495.50 C526.17,508.15 520.90,520.52 519.81,523.00 C520.90,520.52 526.17,508.15 531.53,495.50 C534.37,488.78 537.90,480.58 541.71,471.80 C538.21,479.86 534.48,488.56 531.53,495.50 Z" fill="rgb(168,208,86)"/>
<path d="M 0.00 512.00 L 0.00 0.00 L 512.00 0.00 L 1024.00 0.00 L 1024.00 512.00 L 1024.00 1024.00 L 512.00 1024.00 L 0.00 1024.00 L 0.00 512.00 ZM 770.83 834.09 C774.01,832.39 776.99,827.12 777.00,823.20 C777.00,819.21 774.68,814.43 772.06,813.03 C770.99,812.46 763.61,812.00 755.47,812.00 L 740.80 812.00 L 727.65 799.39 C713.57,785.89 701.05,772.93 701.02,771.82 C701.01,771.45 705.39,767.85 710.75,763.82 C723.06,754.57 746.68,731.65 757.79,718.16 C782.36,688.33 801.75,651.48 812.87,613.50 C816.77,600.17 820.93,576.43 822.13,560.65 C823.08,548.16 823.65,544.69 824.86,544.23 C825.88,543.83 829.16,546.58 834.94,552.66 C844.71,562.97 847.40,564.51 852.95,563.01 C858.30,561.57 861.77,558.51 863.11,554.04 C865.42,546.33 864.22,544.22 847.26,526.14 C821.17,498.33 813.67,490.71 811.03,489.33 C807.54,487.51 803.06,487.67 799.33,489.75 C796.08,491.56 749.44,539.62 747.29,543.38 C746.62,544.55 746.05,547.62 746.04,550.22 C746.01,554.07 746.55,555.56 749.05,558.40 C750.73,560.31 753.71,562.41 755.68,563.06 C761.76,565.07 765.63,563.14 774.88,553.50 C784.81,543.16 787.01,542.57 786.98,550.25 C786.94,561.17 782.14,587.53 776.92,605.42 C754.27,683.10 695.57,745.31 615.50,776.48 C519.38,813.89 404.68,791.42 327.51,720.04 C291.87,687.09 267.91,647.82 251.82,596.01 C248.61,585.67 246.10,584.00 233.70,584.00 L 224.69 584.00 L 220.85 588.04 C215.52,593.64 215.80,597.67 223.19,621.47 C239.77,674.81 275.06,725.76 320.50,761.93 C327.65,767.62 333.70,772.46 333.95,772.68 C334.20,772.89 325.66,781.83 314.96,792.54 L 295.52 812.00 L 280.45 812.00 L 265.37 812.00 L 262.61 814.89 C256.82,820.93 258.90,830.07 267.02,834.32 C270.37,836.08 280.02,836.13 519.52,835.73 C713.03,835.41 769.05,835.04 770.83,834.09 ZM 559.00 760.10 C608.27,751.63 652.57,729.51 687.40,696.00 C702.47,681.49 711.86,670.55 721.17,656.62 C735.42,635.30 750.93,600.73 750.99,590.17 C751.01,586.56 745.83,582.00 741.71,582.00 C736.49,582.00 733.36,585.11 731.06,592.55 C721.92,622.14 704.87,650.50 681.75,674.55 C661.66,695.46 642.17,709.76 617.79,721.48 C585.85,736.84 554.64,744.00 519.64,744.00 C488.32,744.00 460.14,738.59 430.62,726.90 C387.33,709.77 348.36,677.02 323.45,636.86 C317.48,627.23 308.07,608.11 304.08,597.50 C299.77,586.05 298.79,584.22 296.35,583.11 C292.62,581.41 288.55,581.78 285.63,584.07 C281.05,587.68 282.31,594.75 291.51,616.95 C312.20,666.91 354.21,711.29 404.56,736.37 C430.55,749.32 456.17,757.07 487.50,761.47 C502.98,763.64 542.82,762.88 559.00,760.10 ZM 512.56 620.52 C530.36,617.64 542.09,612.91 558.10,602.19 C586.04,583.47 604.03,554.54 612.63,514.50 C614.90,503.95 615.27,499.42 615.72,477.00 C616.29,448.49 615.22,436.00 610.09,410.79 C606.81,394.67 603.69,383.12 598.54,367.96 C596.59,362.24 595.00,357.44 595.00,357.28 C595.00,355.16 580.63,360.66 562.71,369.64 C528.16,386.95 500.24,406.73 475.43,431.47 C453.74,453.09 440.62,471.46 433.29,490.42 C420.24,524.18 425.68,564.27 447.21,593.08 C453.26,601.17 462.60,610.73 463.54,609.79 C463.86,609.47 466.49,602.97 469.38,595.35 C481.72,562.82 498.95,526.06 515.57,496.82 C526.79,477.07 562.87,416.95 564.64,415.04 C566.86,412.65 566.37,415.92 563.59,422.13 C553.48,444.68 539.71,476.18 531.53,495.50 C526.17,508.15 520.90,520.53 519.81,523.00 C510.90,543.37 486.00,614.13 486.00,619.07 C486.00,620.13 486.92,621.04 488.25,621.29 C493.23,622.25 503.99,621.91 512.56,620.52 ZM 233.20 551.37 C237.50,547.57 281.34,499.39 283.14,496.50 C287.12,490.07 284.54,479.88 278.09,476.55 C274.36,474.62 267.76,474.55 264.20,476.40 C262.72,477.18 258.19,481.23 254.15,485.40 C250.10,489.58 246.16,493.00 245.40,493.00 C243.54,493.00 243.57,486.58 245.48,472.44 C248.39,450.90 250.45,441.84 257.10,421.34 C268.33,386.73 287.60,354.15 314.05,325.05 C368.22,265.43 449.23,233.50 532.78,238.82 C542.73,239.46 555.27,240.68 560.65,241.55 C575.16,243.88 598.94,250.20 613.05,255.47 C626.42,260.46 650.42,271.90 658.53,277.15 C681.19,291.82 684.82,294.51 700.50,308.20 C734.30,337.71 763.56,383.45 777.46,428.50 C782.49,444.83 783.58,447.18 787.30,449.72 C794.11,454.39 810.17,453.50 816.18,448.13 C821.97,442.96 821.01,434.54 811.38,406.09 C781.62,318.15 709.99,247.56 619.00,216.50 C607.85,212.69 595.60,209.38 580.50,206.08 C548.79,199.15 502.80,198.11 467.50,203.51 C419.21,210.91 372.09,229.92 333.29,257.68 C314.90,270.83 288.72,294.74 274.89,311.00 C234.22,358.85 209.25,420.29 205.47,481.83 C204.94,490.41 204.42,493.29 203.30,493.72 C202.35,494.08 198.69,491.17 193.00,485.50 C184.71,477.24 183.90,476.70 179.34,476.31 C173.60,475.81 169.10,478.15 165.99,483.24 C163.29,487.68 163.49,491.97 166.63,496.59 C170.30,502.00 215.84,549.92 219.50,552.22 C223.19,554.55 230.09,554.12 233.20,551.37 ZM 294.93 454.54 C298.13,452.88 297.91,453.32 302.98,438.50 C311.76,412.79 322.08,394.17 340.11,371.50 C359.95,346.56 384.26,327.10 414.05,312.33 C446.81,296.08 478.56,288.82 517.50,288.68 C543.96,288.58 564.66,291.73 589.50,299.63 C655.37,320.58 709.88,374.84 731.02,440.50 C734.97,452.77 738.18,456.55 743.89,455.64 C748.65,454.88 752.00,451.01 752.00,446.26 C752.00,440.51 744.52,419.83 736.53,403.50 C718.10,365.83 690.24,333.58 656.37,310.70 C636.20,297.08 606.17,283.84 581.00,277.48 C558.24,271.73 542.81,269.92 516.32,269.90 C480.85,269.88 452.34,275.25 422.41,287.61 C363.78,311.80 317.38,356.10 292.68,411.43 C287.50,423.03 281.00,441.78 281.00,445.11 C281.00,448.30 283.80,452.83 286.76,454.43 C290.24,456.32 291.44,456.34 294.93,454.54 ZM 339.58 811.13 C339.28,810.64 343.68,805.34 349.38,799.37 L 359.73 788.50 L 379.62 798.39 C390.55,803.83 400.12,808.57 400.88,808.93 C405.31,810.99 399.75,811.52 371.07,811.76 C353.55,811.91 339.89,811.64 339.58,811.13 ZM 631.49 810.98 C631.13,810.41 633.00,809.02 635.68,807.85 C647.58,802.68 655.13,798.95 663.46,794.16 C668.38,791.32 673.19,789.00 674.13,789.00 C675.65,789.00 695.00,808.53 695.00,810.07 C695.00,812.00 632.66,812.88 631.49,810.98 Z" fill="rgb(254,254,254)"/>
</g>
</svg>