<svg width="554" height="450" viewBox="0 0 554 450" fill="none" xmlns="http://www.w3.org/2000/svg">
<path d="M254 39C247.3 40.1 237.9 42.3 236.5 43.1C236 43.5 233.9 44.1 232 44.5C230.1 44.9 227.4 45.8 226 46.5C224.6 47.2 220.6 49.3 217 51C197.5 60.7 178.9 77.2 167.3 95C165.3 98 162.9 101.6 162 103C161.1 104.4 159.5 107.6 158.4 110.2C157.4 112.9 156.2 115 155.8 115C155.3 115 155 115.7 155 116.6C155 117.5 154.4 119.4 153.6 120.8C151.7 124.4 148.2 136.4 147 143.7C146.5 146.9 145.6 152.2 145 155.5C143.9 161.4 144.1 180.1 145.3 187C146.1 191 151.2 196 154.7 196C155.9 196 158.5 194.7 160.3 193L163.7 190L164.3 172.3C164.8 158.7 165.4 152.6 167 146.5C168.2 142.1 169.4 137.1 169.7 135.3C170 133.5 170.8 131.5 171.6 130.9C172.4 130.3 173 128.8 173 127.6C173 126.5 173.9 124.1 175 122.5C176.1 120.8 178 117.5 179.2 115C186.5 99.6 206.4 79.6 223.1 71C231.4 66.8 243.6 61.9 244.3 62.6C244.5 62.8 246.5 62.4 248.7 61.6C257.7 58.4 281 58.7 297 62.1C317.9 66.5 341.2 81.6 354.8 99.5C357.3 102.8 359.8 105.8 360.3 106.1C360.9 106.5 359.9 107.5 358.3 108.4C352.9 111.1 352.5 115.8 357.3 119.2C361.2 122 363.9 123.7 366.5 125C367.6 125.6 370.5 127.4 373 129C380.7 134.1 386 136.2 387.7 134.8C390.3 132.7 391.9 127.1 392.1 119.3C392.2 115 392.7 108.6 393.2 105C394.3 97.1 393.7 94.3 390.5 92.8C388.6 91.9 387.3 92.1 383.8 93.8L379.6 96L376.6 92.2C370.4 84.7 350.3 65.3 344.5 61.4C333.8 54.1 319 46.9 310 44.5C308.6 44.2 306.6 43.5 305.5 43.1C296.3 39.3 267 37 254 39Z" fill="#008000"/>
<path d="M255.5 80.2C236.1 85 224.5 91.5 210.9 105.2C190.6 125.7 180.6 153.9 183.9 181.2C185.7 195.6 188.6 204.3 196.4 218.5C199.5 224.2 206.4 233.1 211.2 237.6C230.3 255.8 254.1 265.2 277 263.6C289.1 262.8 301.4 259.8 306.5 256.3C307.6 255.6 309 255 309.8 255C314.7 255 343 230.4 343 226.1C343 225.6 343.3 225 343.8 224.8C345.6 224 351.9 212.4 355.4 203.5C364.4 180.3 361.7 146.7 349.2 126C348 124.1 346.2 120.9 345.1 119C342.6 114.5 326.2 97 324.5 97C323.5 96 324 96.5 322.5 95.5C319.9 91.4 300.7 82.9 291.1 81.5C288.7 81.2 285.7 80.5 284.3 79.9C281.2 78.7 260.7 78.9 255.5 80.2ZM286.5 98.9C301.2 102.3 313.2 109.1 322.5 119.2C329 126.3 334.6 134.6 336.2 139.3C336.8 141.1 337.6 142.9 338 143.5C339.3 145.3 342.9 160.3 343.6 166.5C344.8 177.9 341.2 193.9 334.2 207.9C329.3 217.9 315.4 232 306 236.7C296 241.7 292.3 242.9 283.6 244.4C268.5 247 253.8 244.6 239.7 237.2C234.5 234.5 229.9 230.9 223.3 224.2C218.2 219.1 214 214.3 214 213.6C214 212.8 213.6 212 213.1 211.8C211.6 211.3 204.4 195 202.9 189C200.5 179.2 201.3 156.5 204.2 149.2C204.8 147.7 205.6 145.6 205.9 144.5C209.9 133.1 218.7 120.7 228.2 113.1C235.1 107.6 249.4 100 253.2 99.9C254.4 99.9 257.5 99.3 260 98.6C266.6 96.7 277.4 96.8 286.5 98.9Z" fill="#476639"/>
<path fill-rule="evenodd" clip-rule="evenodd" d="M242 200.5C242.357 199.786 242.459 199.582 242.561 199.378L242 200.5Z" fill="#008000"/>
<path d="M287 132C288 131.5 292.6 130.6 297.2 130.2C304.3 129.4 306.5 129.4 310 129.9C311.2 130.1 309.5 158 308 163.5C307.5 165.1 306.9 168.5 306.5 171C304.7 184.1 295 200.3 284.4 208C275.5 214.6 262.1 217 252.6 213.8C246.6 211.8 246.1 210.1 249.5 203.3C255.9 190.8 268.8 172.1 278 162.1C279.7 160.3 280.9 158.6 280.8 158.4C280.1 157.7 265.4 168.3 260.7 172.8C255.2 178.1 249.5 186.1 245.9 193.5C244.6 196.2 243.1 198.8 242.7 199.1C242.643 199.214 242.602 199.296 242.561 199.378C242.459 199.582 242.357 199.786 242 200.5C241.668 201.165 241.424 201.885 241.198 202.55C240.746 203.886 240.368 205 239.5 205C237.2 205 231.5 194.5 230.7 193C230.443 192.629 230.414 192.589 230.414 192.589C230.414 192.589 230.467 192.659 230.1 192.1C228.5 190 228.3 173.7 230.9 167.6C235.7 156.7 243.9 148.6 257.2 141.7C264.3 138 279.1 133 282.9 133C284.1 133 286 132.6 287 132Z" fill="#008000"/>
<path d="M385.9 153.9C383.9 155.5 383.5 157 382.8 166.6C381.6 184.1 380.3 193 377.6 201.5C370.7 223.8 362.8 237.3 347.6 252.5C339.2 260.8 325.8 271 323.1 271C322.5 271 322 271.4 322 271.9C322 272.7 307.5 278.6 300 280.9C291.4 283.5 268.3 286 266.7 284.4C266.4 284.1 264.2 283.7 261.8 283.5C251.4 282.8 246 281.3 231.3 275.3C227.8 273.9 225 272.3 225 271.8C225 271.4 224.4 271 223.8 271C222.2 271 210.8 263.2 209.7 261.4C209.3 260.6 208.3 260 207.6 260C205.9 260 194.3 247.4 190.3 241.3C189 239.3 189 239 190.2 239C192.5 239 195.2 235.4 194.8 232.8C194.6 231.1 191.3 228.3 182.5 222.3C175.9 217.8 170 213.7 169.3 213.1C167.1 211.1 162.4 211.8 161.2 214.2C159.5 217.5 158.3 225.7 158.1 235.1C158 239.7 157.6 243.8 157.3 244.3C156.1 246.2 158.2 251.9 160.6 253.5C163 255.1 163.3 255 166.7 252.4L170.3 249.7L178.2 258.3C182.6 263 189.2 269.6 193 272.8L199.8 278.8L191.3 286.9L182.7 295H175.3C166.1 295 164 296 164 300.4C164 307.5 156 307 271.8 307C374.7 307 376 307 378 305C379.1 303.9 380 301.7 380 299.9C380 297.4 379.4 296.7 376.5 295.4C374.6 294.7 370.7 294 367.9 294C363.3 294 362 293.5 357.3 289.9C354.4 287.6 352 285.4 352 285C352 284.5 350.4 283.3 348.5 282.1C344.9 280 343.9 278 346.4 278C349 278 372.4 253.8 377.9 245.5C388.5 229.5 396.6 209.8 399.5 193C401.5 181.3 401.5 162.3 399.4 158.2C396.4 152.1 390.4 150.2 385.9 153.9ZM219.5 290.5C222.3 291.8 225 293 225.7 293C226.3 293 227.1 293.4 227.4 293.9C227.7 294.4 223.1 294.7 217 294.6C211 294.6 206 294.4 206 294.2C206 293.5 212.6 288.1 213.5 288C214.1 288 216.8 289.1 219.5 290.5ZM333.8 290.5C335.5 291.9 337.3 293 337.9 293C338.5 293 339 293.5 339 294.1C339 294.7 338.3 294.9 337.4 294.6C336.5 294.3 332.2 294 327.7 293.9C321.2 293.9 320 293.7 322 292.9C323.3 292.3 324.7 291.5 325 291.1C325.6 290.2 329.2 288.1 330.2 288C330.5 288 332.2 289.1 333.8 290.5Z" fill="#008000"/>
</svg>
